<?xml version="1.0" encoding="UTF-8" standalone="no"?>
<!DOCTYPE svg PUBLIC "-//W3C//DTD SVG 1.1//EN" "http://www.w3.org/Graphics/SVG/1.1/DTD/svg11.dtd">
<svg version="1.1" xmlns="http://www.w3.org/2000/svg" xmlns:xlink="http://www.w3.org/1999/xlink" preserveAspectRatio="xMidYMid meet" viewBox="0 0 33 33" width="33" height="33"><defs><path d="M7.41 6.58C5.57 8.42 5.75 11.07 7.85 13.18C8.99 14.32 18.11 23.43 19.25 24.57C19.65 24.96 20.28 24.94 20.66 24.55C21.03 24.16 21.03 23.55 20.66 23.17C19.52 22.03 10.4 12.91 9.26 11.77C8.24 10.75 7.59 9.22 8.82 7.99C10.05 6.75 11.58 7.41 12.6 8.43C13.87 9.7 24.01 19.83 25.27 21.1C28.91 24.74 29.81 26.41 27.65 28.58C25.46 30.77 23.14 30.22 19.64 26.73C18.23 25.32 6.97 14.06 5.57 12.65C3.29 10.38 1.7 6.66 4.69 3.68C8.24 0.13 12.29 3.62 13.44 4.77C14.74 6.07 25.08 16.41 26.38 17.71C26.77 18.09 27.4 18.08 27.78 17.68C28.16 17.3 28.16 16.69 27.78 16.3C26.49 15.01 16.14 4.66 14.85 3.36C10.94 -0.55 6.5 -0.96 3.28 2.27C0.02 5.53 0.37 10.27 4.16 14.06C5.57 15.46 16.83 26.73 18.24 28.14C19.43 29.33 22 31.89 24.94 31.89C26.27 31.89 27.67 31.37 29.06 29.98C33.02 26.03 29.36 22.36 26.68 19.69C25.84 18.84 21.62 14.62 14.01 7.02C10.84 5.5 8.64 5.35 7.41 6.58Z" id="b1dQD0QUWs"></path></defs><g><g><g><use xlink:href="#b1dQD0QUWs" opacity="1" fill="#0048aa" fill-opacity="1"></use><g><use xlink:href="#b1dQD0QUWs" opacity="1" fill-opacity="0" stroke="#000000" stroke-width="1" stroke-opacity="0"></use></g></g></g></g></svg>