<?xml version="1.0" encoding="UTF-8" standalone="no"?>
<!DOCTYPE svg PUBLIC "-//W3C//DTD SVG 1.1//EN" "http://www.w3.org/Graphics/SVG/1.1/DTD/svg11.dtd">
<svg version="1.1" xmlns="http://www.w3.org/2000/svg" xmlns:xlink="http://www.w3.org/1999/xlink" preserveAspectRatio="xMidYMid meet" viewBox="0 0 640 640" width="640" height="640"><defs><path d="M452.32 324.49C464.51 295.67 470.69 265.07 470.69 233.56C470.69 202.05 464.51 171.46 452.32 142.64C440.55 114.82 423.72 89.84 402.28 68.41C380.84 46.97 355.87 30.14 328.05 18.37C299.23 6.18 268.64 0 237.13 0C205.62 0 175.02 6.18 146.2 18.37C118.38 30.14 93.41 46.97 71.97 68.41C50.54 89.85 33.7 114.82 21.94 142.64C9.75 171.46 3.56 202.05 3.56 233.56C3.56 265.07 9.74 295.67 21.94 324.49C33.7 352.31 50.54 377.28 71.97 398.72C93.41 420.15 118.38 436.99 146.2 448.75C175.02 460.94 205.62 467.13 237.13 467.13C268.64 467.13 299.23 460.94 328.05 448.75C332.88 446.71 337.62 444.5 342.27 442.16C355.36 455.24 460.05 559.94 473.14 573.02C484.73 584.62 500.15 591 516.54 591C532.93 591 548.35 584.62 559.94 573.02C560.99 571.97 569.43 563.53 570.49 562.48C594.42 538.55 594.42 499.61 570.49 475.68C561.89 467.08 518.89 424.08 441.5 346.69C446.56 336.97 450.17 329.57 452.32 324.49ZM310.02 409.9C287.56 419.2 262.94 424.34 237.13 424.34C131.76 424.34 46.35 338.92 46.35 233.56C46.35 128.2 131.76 42.79 237.13 42.79C342.49 42.79 427.9 128.2 427.9 233.56C427.9 262.66 421.37 290.23 409.72 314.91C403.42 328.27 395.61 340.78 386.51 352.21C375.66 365.86 362.98 377.98 348.84 388.21C336.87 396.87 323.85 404.18 310.02 409.9ZM529.68 542.77C526.05 546.4 521.3 548.21 516.54 548.21C511.78 548.21 507.03 546.4 503.4 542.77C491 530.37 391.82 431.19 379.42 418.79C387.42 412.63 395.06 405.94 402.28 398.72C407.44 393.56 412.32 388.19 416.94 382.64C429.27 394.97 527.9 493.6 540.23 505.93C547.49 513.19 547.49 524.96 540.23 532.22C538.12 534.33 530.74 541.71 529.68 542.77Z" id="fSyxmz3Fj"></path><path d="M472.79 573.88C459.73 560.82 355.24 456.33 342.18 443.27C337.54 445.6 332.85 447.77 328.25 449.71C299.36 461.93 268.71 468.12 237.13 468.12C205.55 468.12 174.89 461.93 146.01 449.71C118.13 437.92 93.1 421.05 71.62 399.57C50.14 378.09 33.27 353.06 21.48 325.18C9.26 296.3 3.06 265.64 3.06 234.06C3.06 202.48 9.26 171.83 21.48 142.94C33.27 115.07 50.14 90.04 71.62 68.56C93.1 47.07 118.13 30.2 146.01 18.41C174.89 6.19 205.55 0 237.13 0C268.71 0 299.36 6.19 328.25 18.41C356.12 30.2 381.15 47.07 402.63 68.56C424.12 90.04 440.99 115.06 452.78 142.94C464.99 171.82 471.19 202.48 471.19 234.06C471.19 265.64 465 296.3 452.78 325.18C449.65 332.57 446.07 339.94 442.12 347.1C454.99 359.97 557.97 462.95 570.84 475.82C594.97 499.95 594.97 539.2 570.84 563.33C569.79 564.38 561.35 572.82 560.29 573.88C548.61 585.56 533.07 592 516.54 592C500.01 592 484.47 585.56 472.79 573.88ZM473.49 573.17C484.99 584.67 500.28 591 516.54 591C532.8 591 548.09 584.67 559.59 573.17C560.64 572.12 569.08 563.68 570.14 562.62C593.87 538.89 593.87 500.27 570.14 476.53C561.52 467.91 518.44 424.83 440.88 347.28C440.99 347.08 441.05 346.97 441.06 346.95C445.07 339.72 448.7 332.27 451.86 324.79C464.02 296.03 470.19 265.51 470.19 234.06C470.19 202.62 464.02 172.09 451.86 143.33C440.12 115.57 423.32 90.65 401.93 69.26C380.54 47.87 355.62 31.07 327.86 19.33C299.1 7.17 268.57 1 237.13 1C205.68 1 175.16 7.17 146.4 19.33C118.64 31.07 93.72 47.87 72.33 69.26C50.93 90.65 34.14 115.57 22.4 143.33C10.23 172.09 4.06 202.62 4.06 234.06C4.06 265.51 10.23 296.03 22.4 324.79C34.14 352.55 50.93 377.47 72.33 398.86C93.72 420.25 118.64 437.05 146.4 448.79C175.16 460.96 205.68 467.12 237.13 467.12C268.57 467.12 299.1 460.96 327.86 448.79C332.55 446.81 337.32 444.59 342.05 442.21C342.07 442.2 342.18 442.15 342.37 442.05C421.04 520.72 464.75 564.43 473.49 573.17ZM503.04 543.62C494.75 535.33 453.29 493.87 378.66 419.24C378.93 419.03 379.08 418.92 379.11 418.89C387.14 412.71 394.82 405.97 401.93 398.86C407 393.79 411.92 388.39 416.55 382.82C416.58 382.79 416.69 382.65 416.9 382.4C491.11 456.61 532.34 497.83 540.59 506.08C548.03 513.52 548.03 525.63 540.59 533.07C539.53 534.13 531.09 542.57 530.04 543.62C526.43 547.23 521.64 549.21 516.54 549.21C511.44 549.21 506.65 547.23 503.04 543.62ZM503.75 542.91C507.17 546.33 511.71 548.21 516.54 548.21C521.37 548.21 525.92 546.33 529.33 542.91C530.39 541.86 538.83 533.42 539.88 532.37C546.93 525.31 546.93 513.84 539.88 506.79C527.59 494.5 429.26 396.17 416.97 383.88C412.42 389.32 407.6 394.6 402.63 399.57C395.62 406.58 388.07 413.23 380.17 419.34C404.89 444.05 491.39 530.56 503.75 542.91ZM45.85 234.06C45.85 128.59 131.66 42.79 237.13 42.79C342.6 42.79 428.4 128.59 428.4 234.06C428.4 262.57 422.27 290.01 410.17 315.62C403.9 328.91 396.07 341.5 386.9 353.02C376.01 366.72 363.3 378.86 349.13 389.11C337.04 397.86 323.95 405.18 310.21 410.86C287 420.47 262.42 425.34 237.13 425.34C131.66 425.34 45.85 339.53 45.85 234.06ZM46.85 234.06C46.85 338.98 132.21 424.34 237.13 424.34C262.28 424.34 286.74 419.49 309.83 409.94C323.49 404.29 336.52 397.01 348.54 388.3C362.64 378.1 375.28 366.02 386.12 352.4C395.24 340.94 403.03 328.42 409.27 315.2C421.3 289.72 427.4 262.42 427.4 234.06C427.4 129.14 342.04 43.79 237.13 43.79C132.21 43.79 46.85 129.14 46.85 234.06Z" id="aMJz2nItv"></path></defs><g><g><g><use xlink:href="#fSyxmz3Fj" opacity="1" fill="#ffffff" fill-opacity="1"></use><g><use xlink:href="#fSyxmz3Fj" opacity="1" fill-opacity="0" stroke="#000000" stroke-width="1" stroke-opacity="0"></use></g></g><g><use xlink:href="#aMJz2nItv" opacity="1" fill="#ffffff" fill-opacity="1"></use><g><use xlink:href="#aMJz2nItv" opacity="1" fill-opacity="0" stroke="#000000" stroke-width="1" stroke-opacity="0"></use></g></g></g></g></svg>