<?xml version="1.0" encoding="UTF-8" standalone="no"?>
<!DOCTYPE svg PUBLIC "-//W3C//DTD SVG 1.1//EN" "http://www.w3.org/Graphics/SVG/1.1/DTD/svg11.dtd">
<svg version="1.1" xmlns="http://www.w3.org/2000/svg" xmlns:xlink="http://www.w3.org/1999/xlink" preserveAspectRatio="xMidYMid meet" viewBox="0 0 640 640" width="640" height="640"><defs><path d="M406.76 186.86C399.42 186.86 393.41 192.87 393.41 200.21C393.41 207.55 399.42 213.56 406.76 213.56C408.76 213.56 424.78 213.56 426.78 213.56C434.12 213.56 440.13 207.55 440.13 200.21C440.13 192.87 434.12 186.86 426.78 186.86C422.77 186.86 408.76 186.86 406.76 186.86Z" id="b28IQNNz8X"></path><path d="M446.8 80.08C446.8 36.04 410.76 0 366.72 0C356.7 0 276.62 0 266.61 0C222.57 0 186.53 36.04 186.53 80.08C179.19 80.08 120.46 80.08 113.12 80.08C76.41 80.08 46.38 110.11 46.38 146.82C46.38 149.49 46.38 170.84 46.38 173.51C46.38 193.53 61.73 210.22 81.08 212.89C84.49 249.53 111.72 542.63 115.12 579.27C118.46 613.97 147.15 640 181.86 640C209.48 640 430.52 640 458.14 640C492.85 640 521.54 613.97 524.88 579.27C528.28 542.63 555.51 249.53 558.92 212.89C578.27 210.22 593.62 193.53 593.62 173.51C593.62 170.84 593.62 149.49 593.62 146.82C593.62 110.11 563.59 80.08 526.88 80.08C510.87 80.08 454.81 80.08 446.8 80.08ZM366.72 26.69C396.08 26.69 420.1 50.72 420.1 80.08C399.42 80.08 233.91 80.08 213.22 80.08C213.22 50.72 237.25 26.69 266.61 26.69C286.63 26.69 356.7 26.69 366.72 26.69ZM553.58 186.86C552.91 186.86 547.57 186.86 546.9 186.86C540.23 186.86 534.22 192.2 533.56 198.87C530.02 236.71 501.72 539.43 498.19 577.27C496.18 597.96 478.83 613.97 458.14 613.97C430.52 613.97 209.48 613.97 181.86 613.97C161.17 613.97 143.82 597.96 141.81 577.27C139.55 553.02 128.2 431.78 107.78 213.56C251.13 213.56 330.77 213.56 346.69 213.56C354.04 213.56 360.04 207.55 360.04 200.21C360.04 192.87 354.04 186.86 346.69 186.86C329.79 186.86 245.26 186.86 93.1 186.86C89.09 186.86 86.87 186.86 86.42 186.86C79.08 186.86 73.08 180.86 73.08 173.51C73.08 170.84 73.08 149.49 73.08 146.82C73.08 124.8 91.09 106.78 113.12 106.78C154.49 106.78 485.51 106.78 526.88 106.78C548.91 106.78 566.92 124.8 566.92 146.82C566.92 148.6 566.92 157.5 566.92 173.51C562.92 182.41 558.47 186.86 553.58 186.86Z" id="b1bSXSsOyk"></path><path d="M199.87 280.29C199.87 305.65 199.87 508.53 199.87 533.89C199.87 541.23 205.88 547.24 213.22 547.24C220.56 547.24 226.57 541.23 226.57 533.89C226.57 508.53 226.57 305.65 226.57 280.29C226.57 272.95 220.56 266.94 213.22 266.94C205.88 266.94 199.87 272.95 199.87 280.29Z" id="au547Aus9"></path><path d="M306.65 280.29C306.65 305.65 306.65 508.53 306.65 533.89C306.65 541.23 312.66 547.24 320 547.24C327.34 547.24 333.35 541.23 333.35 533.89C333.35 508.53 333.35 305.65 333.35 280.29C333.35 272.95 327.34 266.94 320 266.94C312.66 266.94 306.65 272.95 306.65 280.29Z" id="kftvjZIzK"></path><path d="M413.43 280.29C413.43 305.65 413.43 508.53 413.43 533.89C413.43 541.23 419.44 547.24 426.78 547.24C434.12 547.24 440.13 541.23 440.13 533.89C440.13 508.53 440.13 305.65 440.13 280.29C440.13 272.95 434.12 266.94 426.78 266.94C419.44 266.94 413.43 272.95 413.43 280.29Z" id="aP0HZuQOx"></path></defs><g><g><g><use xlink:href="#b28IQNNz8X" opacity="1" fill="#002c88" fill-opacity="1"></use><g><use xlink:href="#b28IQNNz8X" opacity="1" fill-opacity="0" stroke="#000000" stroke-width="1" stroke-opacity="0"></use></g></g><g><use xlink:href="#b1bSXSsOyk" opacity="1" fill="#002c88" fill-opacity="1"></use><g><use xlink:href="#b1bSXSsOyk" opacity="1" fill-opacity="0" stroke="#000000" stroke-width="1" stroke-opacity="0"></use></g></g><g><use xlink:href="#au547Aus9" opacity="1" fill="#002c88" fill-opacity="1"></use><g><use xlink:href="#au547Aus9" opacity="1" fill-opacity="0" stroke="#000000" stroke-width="1" stroke-opacity="0"></use></g></g><g><use xlink:href="#kftvjZIzK" opacity="1" fill="#002c88" fill-opacity="1"></use><g><use xlink:href="#kftvjZIzK" opacity="1" fill-opacity="0" stroke="#000000" stroke-width="1" stroke-opacity="0"></use></g></g><g><use xlink:href="#aP0HZuQOx" opacity="1" fill="#002c88" fill-opacity="1"></use><g><use xlink:href="#aP0HZuQOx" opacity="1" fill-opacity="0" stroke="#000000" stroke-width="1" stroke-opacity="0"></use></g></g></g></g></svg>